<mxfile host="app.diagrams.net" modified="2023-10-01T22:59:05.512Z" agent="Mozilla/5.0 (Windows NT 10.0; Win64; x64) AppleWebKit/537.36 (KHTML, like Gecko) Chrome/117.0.0.0 Safari/537.36" etag="_W3GcFWYPg9DyWQAkAx1" version="22.0.0" type="device">
  <diagram name="Página-1" id="vbbpCsOytQnc89G6aBdp">
    <mxGraphModel dx="1366" dy="722" grid="1" gridSize="10" guides="1" tooltips="1" connect="1" arrows="1" fold="1" page="1" pageScale="1" pageWidth="827" pageHeight="1169" math="0" shadow="0">
      <root>
        <mxCell id="0" />
        <mxCell id="1" parent="0" />
        <mxCell id="l_kJAS8HPNhYw7Ya9zcE-34" style="edgeStyle=orthogonalEdgeStyle;rounded=0;orthogonalLoop=1;jettySize=auto;html=1;entryX=0;entryY=0.5;entryDx=0;entryDy=0;startArrow=classic;startFill=1;" edge="1" parent="1" source="l_kJAS8HPNhYw7Ya9zcE-2" target="l_kJAS8HPNhYw7Ya9zcE-11">
          <mxGeometry relative="1" as="geometry" />
        </mxCell>
        <mxCell id="l_kJAS8HPNhYw7Ya9zcE-52" value="1" style="edgeLabel;html=1;align=center;verticalAlign=middle;resizable=0;points=[];" vertex="1" connectable="0" parent="l_kJAS8HPNhYw7Ya9zcE-34">
          <mxGeometry x="-0.5937" y="1" relative="1" as="geometry">
            <mxPoint as="offset" />
          </mxGeometry>
        </mxCell>
        <mxCell id="l_kJAS8HPNhYw7Ya9zcE-53" value="N" style="edgeLabel;html=1;align=center;verticalAlign=middle;resizable=0;points=[];" vertex="1" connectable="0" parent="l_kJAS8HPNhYw7Ya9zcE-34">
          <mxGeometry x="0.6888" relative="1" as="geometry">
            <mxPoint as="offset" />
          </mxGeometry>
        </mxCell>
        <mxCell id="l_kJAS8HPNhYw7Ya9zcE-2" value="Condutor" style="swimlane;fontStyle=1;align=center;verticalAlign=top;childLayout=stackLayout;horizontal=1;startSize=26;horizontalStack=0;resizeParent=1;resizeParentMax=0;resizeLast=0;collapsible=1;marginBottom=0;whiteSpace=wrap;html=1;" vertex="1" parent="1">
          <mxGeometry x="200" y="115" width="160" height="180" as="geometry" />
        </mxCell>
        <mxCell id="l_kJAS8HPNhYw7Ya9zcE-3" value="&lt;b&gt;CPF&lt;br&gt;&lt;/b&gt;Nome&lt;br&gt;Rua&lt;br&gt;Número&lt;br&gt;Cidade&lt;br&gt;Bairro&lt;br&gt;Estado&lt;br&gt;Celular" style="text;strokeColor=none;fillColor=none;align=left;verticalAlign=top;spacingLeft=4;spacingRight=4;overflow=hidden;rotatable=0;points=[[0,0.5],[1,0.5]];portConstraint=eastwest;whiteSpace=wrap;html=1;" vertex="1" parent="l_kJAS8HPNhYw7Ya9zcE-2">
          <mxGeometry y="26" width="160" height="124" as="geometry" />
        </mxCell>
        <mxCell id="l_kJAS8HPNhYw7Ya9zcE-4" value="" style="line;strokeWidth=1;fillColor=none;align=left;verticalAlign=middle;spacingTop=-1;spacingLeft=3;spacingRight=3;rotatable=0;labelPosition=right;points=[];portConstraint=eastwest;strokeColor=inherit;" vertex="1" parent="l_kJAS8HPNhYw7Ya9zcE-2">
          <mxGeometry y="150" width="160" height="8" as="geometry" />
        </mxCell>
        <mxCell id="l_kJAS8HPNhYw7Ya9zcE-5" value="+ method(type): type" style="text;strokeColor=none;fillColor=none;align=left;verticalAlign=top;spacingLeft=4;spacingRight=4;overflow=hidden;rotatable=0;points=[[0,0.5],[1,0.5]];portConstraint=eastwest;whiteSpace=wrap;html=1;" vertex="1" parent="l_kJAS8HPNhYw7Ya9zcE-2">
          <mxGeometry y="158" width="160" height="22" as="geometry" />
        </mxCell>
        <mxCell id="l_kJAS8HPNhYw7Ya9zcE-49" style="edgeStyle=orthogonalEdgeStyle;rounded=0;orthogonalLoop=1;jettySize=auto;html=1;entryX=0;entryY=0.5;entryDx=0;entryDy=0;" edge="1" parent="1" source="l_kJAS8HPNhYw7Ya9zcE-6" target="l_kJAS8HPNhYw7Ya9zcE-46">
          <mxGeometry relative="1" as="geometry" />
        </mxCell>
        <mxCell id="l_kJAS8HPNhYw7Ya9zcE-55" value="1" style="edgeLabel;html=1;align=center;verticalAlign=middle;resizable=0;points=[];" vertex="1" connectable="0" parent="l_kJAS8HPNhYw7Ya9zcE-49">
          <mxGeometry x="-0.5862" y="1" relative="1" as="geometry">
            <mxPoint as="offset" />
          </mxGeometry>
        </mxCell>
        <mxCell id="l_kJAS8HPNhYw7Ya9zcE-56" value="N" style="edgeLabel;html=1;align=center;verticalAlign=middle;resizable=0;points=[];" vertex="1" connectable="0" parent="l_kJAS8HPNhYw7Ya9zcE-49">
          <mxGeometry x="0.5504" y="1" relative="1" as="geometry">
            <mxPoint as="offset" />
          </mxGeometry>
        </mxCell>
        <mxCell id="l_kJAS8HPNhYw7Ya9zcE-6" value="Veículo" style="swimlane;fontStyle=1;align=center;verticalAlign=top;childLayout=stackLayout;horizontal=1;startSize=26;horizontalStack=0;resizeParent=1;resizeParentMax=0;resizeLast=0;collapsible=1;marginBottom=0;whiteSpace=wrap;html=1;" vertex="1" parent="1">
          <mxGeometry x="760" y="137" width="170" height="144" as="geometry" />
        </mxCell>
        <mxCell id="l_kJAS8HPNhYw7Ya9zcE-7" value="&lt;b&gt;Placa&lt;/b&gt;&lt;br&gt;Modelo&lt;br&gt;Ano&lt;br&gt;CPF_Placa&lt;br&gt;Inicio_Tempo_Estacionamento&lt;br&gt;" style="text;strokeColor=none;fillColor=none;align=left;verticalAlign=top;spacingLeft=4;spacingRight=4;overflow=hidden;rotatable=0;points=[[0,0.5],[1,0.5]];portConstraint=eastwest;whiteSpace=wrap;html=1;" vertex="1" parent="l_kJAS8HPNhYw7Ya9zcE-6">
          <mxGeometry y="26" width="170" height="84" as="geometry" />
        </mxCell>
        <mxCell id="l_kJAS8HPNhYw7Ya9zcE-8" value="" style="line;strokeWidth=1;fillColor=none;align=left;verticalAlign=middle;spacingTop=-1;spacingLeft=3;spacingRight=3;rotatable=0;labelPosition=right;points=[];portConstraint=eastwest;strokeColor=inherit;" vertex="1" parent="l_kJAS8HPNhYw7Ya9zcE-6">
          <mxGeometry y="110" width="170" height="8" as="geometry" />
        </mxCell>
        <mxCell id="l_kJAS8HPNhYw7Ya9zcE-9" value="+ method(type): type" style="text;strokeColor=none;fillColor=none;align=left;verticalAlign=top;spacingLeft=4;spacingRight=4;overflow=hidden;rotatable=0;points=[[0,0.5],[1,0.5]];portConstraint=eastwest;whiteSpace=wrap;html=1;" vertex="1" parent="l_kJAS8HPNhYw7Ya9zcE-6">
          <mxGeometry y="118" width="170" height="26" as="geometry" />
        </mxCell>
        <mxCell id="l_kJAS8HPNhYw7Ya9zcE-10" value="Condutor_Veiculo" style="swimlane;fontStyle=1;align=center;verticalAlign=top;childLayout=stackLayout;horizontal=1;startSize=26;horizontalStack=0;resizeParent=1;resizeParentMax=0;resizeLast=0;collapsible=1;marginBottom=0;whiteSpace=wrap;html=1;" vertex="1" parent="1">
          <mxGeometry x="480" y="142" width="170" height="160" as="geometry" />
        </mxCell>
        <mxCell id="l_kJAS8HPNhYw7Ya9zcE-11" value="CPF_Placa&lt;br&gt;CPF&lt;br&gt;Placa" style="text;strokeColor=none;fillColor=none;align=left;verticalAlign=top;spacingLeft=4;spacingRight=4;overflow=hidden;rotatable=0;points=[[0,0.5],[1,0.5]];portConstraint=eastwest;whiteSpace=wrap;html=1;" vertex="1" parent="l_kJAS8HPNhYw7Ya9zcE-10">
          <mxGeometry y="26" width="170" height="74" as="geometry" />
        </mxCell>
        <mxCell id="l_kJAS8HPNhYw7Ya9zcE-12" value="" style="line;strokeWidth=1;fillColor=none;align=left;verticalAlign=middle;spacingTop=-1;spacingLeft=3;spacingRight=3;rotatable=0;labelPosition=right;points=[];portConstraint=eastwest;strokeColor=inherit;" vertex="1" parent="l_kJAS8HPNhYw7Ya9zcE-10">
          <mxGeometry y="100" width="170" height="8" as="geometry" />
        </mxCell>
        <mxCell id="l_kJAS8HPNhYw7Ya9zcE-13" value="+ method(type): type" style="text;strokeColor=none;fillColor=none;align=left;verticalAlign=top;spacingLeft=4;spacingRight=4;overflow=hidden;rotatable=0;points=[[0,0.5],[1,0.5]];portConstraint=eastwest;whiteSpace=wrap;html=1;" vertex="1" parent="l_kJAS8HPNhYw7Ya9zcE-10">
          <mxGeometry y="108" width="170" height="52" as="geometry" />
        </mxCell>
        <mxCell id="l_kJAS8HPNhYw7Ya9zcE-14" value="Forma_Pagamento_Cartao" style="swimlane;fontStyle=1;align=center;verticalAlign=top;childLayout=stackLayout;horizontal=1;startSize=26;horizontalStack=0;resizeParent=1;resizeParentMax=0;resizeLast=0;collapsible=1;marginBottom=0;whiteSpace=wrap;html=1;" vertex="1" parent="1">
          <mxGeometry x="7" y="608" width="210" height="110" as="geometry" />
        </mxCell>
        <mxCell id="l_kJAS8HPNhYw7Ya9zcE-15" value="Flag_Credito_Debito&lt;br&gt;Data_Validade&lt;br&gt;CVV" style="text;strokeColor=none;fillColor=none;align=left;verticalAlign=top;spacingLeft=4;spacingRight=4;overflow=hidden;rotatable=0;points=[[0,0.5],[1,0.5]];portConstraint=eastwest;whiteSpace=wrap;html=1;" vertex="1" parent="l_kJAS8HPNhYw7Ya9zcE-14">
          <mxGeometry y="26" width="210" height="54" as="geometry" />
        </mxCell>
        <mxCell id="l_kJAS8HPNhYw7Ya9zcE-16" value="" style="line;strokeWidth=1;fillColor=none;align=left;verticalAlign=middle;spacingTop=-1;spacingLeft=3;spacingRight=3;rotatable=0;labelPosition=right;points=[];portConstraint=eastwest;strokeColor=inherit;" vertex="1" parent="l_kJAS8HPNhYw7Ya9zcE-14">
          <mxGeometry y="80" width="210" height="8" as="geometry" />
        </mxCell>
        <mxCell id="l_kJAS8HPNhYw7Ya9zcE-17" value="+ method(type): type" style="text;strokeColor=none;fillColor=none;align=left;verticalAlign=top;spacingLeft=4;spacingRight=4;overflow=hidden;rotatable=0;points=[[0,0.5],[1,0.5]];portConstraint=eastwest;whiteSpace=wrap;html=1;" vertex="1" parent="l_kJAS8HPNhYw7Ya9zcE-14">
          <mxGeometry y="88" width="210" height="22" as="geometry" />
        </mxCell>
        <mxCell id="l_kJAS8HPNhYw7Ya9zcE-18" value="Forma_Pagamento_PIX" style="swimlane;fontStyle=1;align=center;verticalAlign=top;childLayout=stackLayout;horizontal=1;startSize=26;horizontalStack=0;resizeParent=1;resizeParentMax=0;resizeLast=0;collapsible=1;marginBottom=0;whiteSpace=wrap;html=1;" vertex="1" parent="1">
          <mxGeometry x="337" y="608" width="210" height="100" as="geometry" />
        </mxCell>
        <mxCell id="l_kJAS8HPNhYw7Ya9zcE-19" value="Chave_Pix" style="text;strokeColor=none;fillColor=none;align=left;verticalAlign=top;spacingLeft=4;spacingRight=4;overflow=hidden;rotatable=0;points=[[0,0.5],[1,0.5]];portConstraint=eastwest;whiteSpace=wrap;html=1;" vertex="1" parent="l_kJAS8HPNhYw7Ya9zcE-18">
          <mxGeometry y="26" width="210" height="24" as="geometry" />
        </mxCell>
        <mxCell id="l_kJAS8HPNhYw7Ya9zcE-20" value="" style="line;strokeWidth=1;fillColor=none;align=left;verticalAlign=middle;spacingTop=-1;spacingLeft=3;spacingRight=3;rotatable=0;labelPosition=right;points=[];portConstraint=eastwest;strokeColor=inherit;" vertex="1" parent="l_kJAS8HPNhYw7Ya9zcE-18">
          <mxGeometry y="50" width="210" height="18" as="geometry" />
        </mxCell>
        <mxCell id="l_kJAS8HPNhYw7Ya9zcE-21" value="+ method(type): type" style="text;strokeColor=none;fillColor=none;align=left;verticalAlign=top;spacingLeft=4;spacingRight=4;overflow=hidden;rotatable=0;points=[[0,0.5],[1,0.5]];portConstraint=eastwest;whiteSpace=wrap;html=1;" vertex="1" parent="l_kJAS8HPNhYw7Ya9zcE-18">
          <mxGeometry y="68" width="210" height="32" as="geometry" />
        </mxCell>
        <mxCell id="l_kJAS8HPNhYw7Ya9zcE-22" value="Forma_Pagamento" style="swimlane;fontStyle=1;align=center;verticalAlign=top;childLayout=stackLayout;horizontal=1;startSize=26;horizontalStack=0;resizeParent=1;resizeParentMax=0;resizeLast=0;collapsible=1;marginBottom=0;whiteSpace=wrap;html=1;" vertex="1" parent="1">
          <mxGeometry x="170" y="434" width="210" height="100" as="geometry" />
        </mxCell>
        <mxCell id="l_kJAS8HPNhYw7Ya9zcE-23" value="&lt;b&gt;Id_Forma_Pagamento&lt;/b&gt;&lt;br&gt;CPF_Forma_Pagamento&lt;br&gt;" style="text;strokeColor=none;fillColor=none;align=left;verticalAlign=top;spacingLeft=4;spacingRight=4;overflow=hidden;rotatable=0;points=[[0,0.5],[1,0.5]];portConstraint=eastwest;whiteSpace=wrap;html=1;" vertex="1" parent="l_kJAS8HPNhYw7Ya9zcE-22">
          <mxGeometry y="26" width="210" height="34" as="geometry" />
        </mxCell>
        <mxCell id="l_kJAS8HPNhYw7Ya9zcE-24" value="" style="line;strokeWidth=1;fillColor=none;align=left;verticalAlign=middle;spacingTop=-1;spacingLeft=3;spacingRight=3;rotatable=0;labelPosition=right;points=[];portConstraint=eastwest;strokeColor=inherit;" vertex="1" parent="l_kJAS8HPNhYw7Ya9zcE-22">
          <mxGeometry y="60" width="210" height="8" as="geometry" />
        </mxCell>
        <mxCell id="l_kJAS8HPNhYw7Ya9zcE-25" value="+ method(type): type" style="text;strokeColor=none;fillColor=none;align=left;verticalAlign=top;spacingLeft=4;spacingRight=4;overflow=hidden;rotatable=0;points=[[0,0.5],[1,0.5]];portConstraint=eastwest;whiteSpace=wrap;html=1;" vertex="1" parent="l_kJAS8HPNhYw7Ya9zcE-22">
          <mxGeometry y="68" width="210" height="32" as="geometry" />
        </mxCell>
        <mxCell id="l_kJAS8HPNhYw7Ya9zcE-27" style="edgeStyle=orthogonalEdgeStyle;rounded=0;orthogonalLoop=1;jettySize=auto;html=1;entryX=0.5;entryY=0;entryDx=0;entryDy=0;" edge="1" parent="1" source="l_kJAS8HPNhYw7Ya9zcE-25" target="l_kJAS8HPNhYw7Ya9zcE-14">
          <mxGeometry relative="1" as="geometry" />
        </mxCell>
        <mxCell id="l_kJAS8HPNhYw7Ya9zcE-58" value="1" style="edgeLabel;html=1;align=center;verticalAlign=middle;resizable=0;points=[];" vertex="1" connectable="0" parent="l_kJAS8HPNhYw7Ya9zcE-27">
          <mxGeometry x="-0.839" y="-1" relative="1" as="geometry">
            <mxPoint as="offset" />
          </mxGeometry>
        </mxCell>
        <mxCell id="l_kJAS8HPNhYw7Ya9zcE-60" value="1" style="edgeLabel;html=1;align=center;verticalAlign=middle;resizable=0;points=[];" vertex="1" connectable="0" parent="l_kJAS8HPNhYw7Ya9zcE-27">
          <mxGeometry x="0.7133" y="1" relative="1" as="geometry">
            <mxPoint as="offset" />
          </mxGeometry>
        </mxCell>
        <mxCell id="l_kJAS8HPNhYw7Ya9zcE-28" style="edgeStyle=orthogonalEdgeStyle;rounded=0;orthogonalLoop=1;jettySize=auto;html=1;entryX=0.548;entryY=0;entryDx=0;entryDy=0;entryPerimeter=0;" edge="1" parent="1" source="l_kJAS8HPNhYw7Ya9zcE-25" target="l_kJAS8HPNhYw7Ya9zcE-18">
          <mxGeometry relative="1" as="geometry" />
        </mxCell>
        <mxCell id="l_kJAS8HPNhYw7Ya9zcE-63" value="1" style="edgeLabel;html=1;align=center;verticalAlign=middle;resizable=0;points=[];" vertex="1" connectable="0" parent="l_kJAS8HPNhYw7Ya9zcE-28">
          <mxGeometry x="-0.6268" y="1" relative="1" as="geometry">
            <mxPoint x="-17" as="offset" />
          </mxGeometry>
        </mxCell>
        <mxCell id="l_kJAS8HPNhYw7Ya9zcE-64" value="1" style="edgeLabel;html=1;align=center;verticalAlign=middle;resizable=0;points=[];" vertex="1" connectable="0" parent="l_kJAS8HPNhYw7Ya9zcE-28">
          <mxGeometry x="0.7595" y="-1" relative="1" as="geometry">
            <mxPoint as="offset" />
          </mxGeometry>
        </mxCell>
        <mxCell id="l_kJAS8HPNhYw7Ya9zcE-36" style="edgeStyle=orthogonalEdgeStyle;rounded=0;orthogonalLoop=1;jettySize=auto;html=1;entryX=1;entryY=0.5;entryDx=0;entryDy=0;startArrow=classic;startFill=1;" edge="1" parent="1" source="l_kJAS8HPNhYw7Ya9zcE-7" target="l_kJAS8HPNhYw7Ya9zcE-11">
          <mxGeometry relative="1" as="geometry" />
        </mxCell>
        <mxCell id="l_kJAS8HPNhYw7Ya9zcE-38" value="N" style="edgeLabel;html=1;align=center;verticalAlign=middle;resizable=0;points=[];" vertex="1" connectable="0" parent="l_kJAS8HPNhYw7Ya9zcE-36">
          <mxGeometry x="0.4815" y="1" relative="1" as="geometry">
            <mxPoint as="offset" />
          </mxGeometry>
        </mxCell>
        <mxCell id="l_kJAS8HPNhYw7Ya9zcE-50" value="1" style="edgeLabel;html=1;align=center;verticalAlign=middle;resizable=0;points=[];" vertex="1" connectable="0" parent="l_kJAS8HPNhYw7Ya9zcE-36">
          <mxGeometry x="-0.5967" relative="1" as="geometry">
            <mxPoint as="offset" />
          </mxGeometry>
        </mxCell>
        <mxCell id="l_kJAS8HPNhYw7Ya9zcE-45" value="Forma_Estacionamento" style="swimlane;fontStyle=1;align=center;verticalAlign=top;childLayout=stackLayout;horizontal=1;startSize=26;horizontalStack=0;resizeParent=1;resizeParentMax=0;resizeLast=0;collapsible=1;marginBottom=0;whiteSpace=wrap;html=1;" vertex="1" parent="1">
          <mxGeometry x="1017" y="131" width="170" height="220" as="geometry" />
        </mxCell>
        <mxCell id="l_kJAS8HPNhYw7Ya9zcE-46" value="&lt;b&gt;Id_Forma_Estacionamento&lt;/b&gt;&lt;br&gt;Forma_Estacionamento&lt;br&gt;Placa&lt;br&gt;Fim_Tempo_Estacionamento&lt;br style=&quot;border-color: var(--border-color);&quot;&gt;Tempo_Estacionamento&lt;br&gt;Tarifa" style="text;strokeColor=none;fillColor=none;align=left;verticalAlign=top;spacingLeft=4;spacingRight=4;overflow=hidden;rotatable=0;points=[[0,0.5],[1,0.5]];portConstraint=eastwest;whiteSpace=wrap;html=1;" vertex="1" parent="l_kJAS8HPNhYw7Ya9zcE-45">
          <mxGeometry y="26" width="170" height="104" as="geometry" />
        </mxCell>
        <mxCell id="l_kJAS8HPNhYw7Ya9zcE-47" value="" style="line;strokeWidth=1;fillColor=none;align=left;verticalAlign=middle;spacingTop=-1;spacingLeft=3;spacingRight=3;rotatable=0;labelPosition=right;points=[];portConstraint=eastwest;strokeColor=inherit;" vertex="1" parent="l_kJAS8HPNhYw7Ya9zcE-45">
          <mxGeometry y="130" width="170" height="8" as="geometry" />
        </mxCell>
        <mxCell id="l_kJAS8HPNhYw7Ya9zcE-48" value="+ CalculaTempoEstacionado&lt;br&gt;+ EmiteAlerta&lt;br&gt;+ EmitirRecibo&lt;br&gt;+ EstenderPeriodo&lt;br&gt;+ IniciarPeriodo" style="text;strokeColor=none;fillColor=none;align=left;verticalAlign=top;spacingLeft=4;spacingRight=4;overflow=hidden;rotatable=0;points=[[0,0.5],[1,0.5]];portConstraint=eastwest;whiteSpace=wrap;html=1;" vertex="1" parent="l_kJAS8HPNhYw7Ya9zcE-45">
          <mxGeometry y="138" width="170" height="82" as="geometry" />
        </mxCell>
        <mxCell id="l_kJAS8HPNhYw7Ya9zcE-57" style="edgeStyle=orthogonalEdgeStyle;rounded=0;orthogonalLoop=1;jettySize=auto;html=1;entryX=0.5;entryY=0;entryDx=0;entryDy=0;exitX=0.465;exitY=1.043;exitDx=0;exitDy=0;exitPerimeter=0;" edge="1" parent="1" source="l_kJAS8HPNhYw7Ya9zcE-5" target="l_kJAS8HPNhYw7Ya9zcE-22">
          <mxGeometry relative="1" as="geometry" />
        </mxCell>
        <mxCell id="l_kJAS8HPNhYw7Ya9zcE-61" value="1" style="edgeLabel;html=1;align=center;verticalAlign=middle;resizable=0;points=[];" vertex="1" connectable="0" parent="l_kJAS8HPNhYw7Ya9zcE-57">
          <mxGeometry x="-0.8049" y="3" relative="1" as="geometry">
            <mxPoint x="-4" as="offset" />
          </mxGeometry>
        </mxCell>
        <mxCell id="l_kJAS8HPNhYw7Ya9zcE-62" value="N" style="edgeLabel;html=1;align=center;verticalAlign=middle;resizable=0;points=[];" vertex="1" connectable="0" parent="l_kJAS8HPNhYw7Ya9zcE-57">
          <mxGeometry x="0.6568" y="-3" relative="1" as="geometry">
            <mxPoint x="2" as="offset" />
          </mxGeometry>
        </mxCell>
      </root>
    </mxGraphModel>
  </diagram>
</mxfile>
